<svg xmlns="http://www.w3.org/2000/svg" style="display: none;">
    <symbol id="icon_clock" viewBox="5760 5216 49.152 49.152">
      <defs><style>.cls-1 { fill: #cba67a; }</style></defs><g id="clock"><g id="Group_192" data-name="Group 192"><path id="Path_551" data-name="Path 551" class="cls-1" d="M5784.576 5216a24.576 24.576 0 1 0 24.576 24.576 24.555 24.555 0 0 0-24.576-24.576zm1.446 46.186v-4.262a1.446 1.446 0 1 0-2.89 0v4.262a21.843 21.843 0 0 1-20.165-20.164h4.26a1.446 1.446 0 0 0 0-2.89h-4.26a21.843 21.843 0 0 1 20.163-20.165v4.26a1.446 1.446 0 0 0 2.89 0v-4.26a21.843 21.843 0 0 1 20.166 20.163h-4.262a1.446 1.446 0 1 0 0 2.89h4.262a21.84 21.84 0 0 1-20.164 20.166z"/><path id="Path_552" data-name="Path 552" class="cls-1" d="M5790.358 5239.13h-4.047a.283.283 0 0 1-.288-.29v-9.83a1.446 1.446 0 0 0-2.89 0v9.83a3.21 3.21 0 0 0 3.18 3.18h4.047a1.446 1.446 0 1 0 0-2.89z"/></g></g>
    </symbol>
    <symbol id="icon_close" viewBox="12523.023 851 21.953 22.141">
      <defs><style>.cls-1 { fill: #fff; }</style></defs><g id="close"><path id="Rectangle_414" data-name="Rectangle 414" class="cls-1" d="M12525.178 851l19.8 19.8-2.156 2.154-19.8-19.8z"/><path id="Rectangle_415" data-name="Rectangle 415" class="cls-1" d="M12523.023 870.986l19.8-19.8 2.154 2.156-19.8 19.8z"/></g>
    </symbol>
    <symbol id="icon_dummy" viewBox="5252 1554.07 36.737 64.948">
      <g fill="#CBA67A"><path data-name="Path 505" class="cls-1" d="M5288.522 1568.575a4.5 4.5 0 0 0-2.945-5.667l-7.75-2.422a2.29 2.29 0 0 1-1.577-1.853l-.272-1.9a3.113 3.113 0 0 0-3.067-2.663h-5.084a3.113 3.113 0 0 0-3.067 2.66l-.273 1.9a2.29 2.29 0 0 1-1.577 1.853l-7.75 2.422a4.5 4.5 0 0 0-2.945 5.667l4.545 14.22a21.172 21.172 0 0 1-.286 13.668l-.008.022a31.708 31.708 0 0 0-2.043 12.4l.277 7.608a1.36 1.36 0 0 0 1.132 1.292 86.787 86.787 0 0 0 14.537 1.23 86.787 86.787 0 0 0 14.536-1.23 1.36 1.36 0 0 0 1.132-1.292l.277-7.608a31.7 31.7 0 0 0-2.043-12.4l-.006-.017a21.176 21.176 0 0 1-.288-13.673l4.545-14.22zm-5.2 35.073c-.57.12-1.14.236-1.71.34a1.36 1.36 0 1 0 .488 2.676c.492-.09.987-.188 1.48-.29.038.8.044 1.608.015 2.417l-.236 6.495a83.87 83.87 0 0 1-25.983 0l-.236-6.494c-.03-.875-.02-1.747.026-2.617.48.107.96.21 1.44.305a1.36 1.36 0 0 0 .53-2.668c-.564-.112-1.13-.236-1.692-.364a29.31 29.31 0 0 1 1.566-6l.016-.042a23.705 23.705 0 0 0 1.28-5.365 1.36 1.36 0 0 0 .167-2.708 23.8 23.8 0 0 0-1.122-7.366l-1.383-4.332.64.134a1.36 1.36 0 0 0 .53-2.668c-.71-.14-1.424-.3-2.128-.464l-2.2-6.89a1.78 1.78 0 0 1 1.164-2.24l6.71-2.1c.12.227.245.452.382.668a1.362 1.362 0 1 0 2.3-1.46q-.088-.14-.17-.283a5.02 5.02 0 0 0 1.99-3.315l.273-1.9a.38.38 0 0 1 .373-.324h5.085a.38.38 0 0 1 .374.325l.272 1.9a5.022 5.022 0 0 0 1.99 3.316c-.054.1-.11.192-.17.284a1.362 1.362 0 1 0 2.3 1.46c.14-.216.264-.44.382-.67l6.71 2.1a1.78 1.78 0 0 1 1.166 2.243l-2.287 7.123c-.677.147-1.36.287-2.04.41a1.36 1.36 0 1 0 .487 2.676c.2-.037.4-.077.6-.116l-1.32 4.13a23.816 23.816 0 0 0-1.122 7.374 1.36 1.36 0 0 0 .167 2.7 23.652 23.652 0 0 0 1.277 5.357l.02.052a29.3 29.3 0 0 1 1.6 6.2z"/><path data-name="Path 506" class="cls-1" d="M5269.328 1592.04h2.143a1.36 1.36 0 1 0 0-2.72h-2.138a1.36 1.36 0 1 0 0 2.72z"/><path data-name="Path 507" class="cls-1" d="M5265.882 1589.32h-2.14a1.36 1.36 0 1 0 0 2.72h2.14a1.36 1.36 0 1 0 0-2.72z"/><path data-name="Path 508" class="cls-1" d="M5277.053 1592.04a1.36 1.36 0 0 0 0-2.72h-2.14a1.36 1.36 0 0 0 0 2.72z"/><path data-name="Path 509" class="cls-1" d="M5266.34 1567.098a8.628 8.628 0 0 0 1.8.7 1.36 1.36 0 1 0 .7-2.63 5.9 5.9 0 0 1-1.228-.48 1.36 1.36 0 1 0-1.267 2.408z"/><path data-name="Path 510" class="cls-1" d="M5272.245 1567.846a1.364 1.364 0 0 0 .35-.046 8.625 8.625 0 0 0 1.8-.7 1.36 1.36 0 0 0-1.267-2.408 5.893 5.893 0 0 1-1.23.48 1.36 1.36 0 0 0 .348 2.675z"/><path data-name="Path 511" class="cls-1" d="M5274.165 1577.535a1.36 1.36 0 0 0 1.355 1.257h.1c.828-.063 1.666-.144 2.49-.24a1.36 1.36 0 0 0-.314-2.7c-.79.092-1.59.17-2.383.23a1.36 1.36 0 0 0-1.248 1.453z"/><path data-name="Path 512" class="cls-1" d="M5262.584 1578.426c.823.11 1.66.2 2.487.28.044 0 .086.005.127.005a1.36 1.36 0 0 0 .123-2.714c-.79-.073-1.592-.163-2.38-.267a1.362 1.362 0 0 0-.356 2.7z"/><path data-name="Path 513" class="cls-1" d="M5271.58 1576.246h-.745c-.553 0-1.113-.008-1.666-.023a1.36 1.36 0 0 0-.077 2.72c.578.015 1.163.023 1.74.023h.763a1.36 1.36 0 0 0-.016-2.72z"/><path data-name="Path 514" class="cls-1" d="M5271.58 1604.955h-.016c-.8.01-1.6 0-2.394-.02h-.038a1.36 1.36 0 0 0-.037 2.72c.578.017 1.166.025 1.748.025h.755a1.36 1.36 0 0 0-.016-2.72z"/><path data-name="Path 515" class="cls-1" d="M5277.8 1604.557c-.79.092-1.59.17-2.383.23a1.36 1.36 0 0 0 .1 2.716h.1c.828-.063 1.666-.144 2.49-.24a1.36 1.36 0 0 0-.314-2.7z"/><path data-name="Path 516" class="cls-1" d="M5265.32 1604.705c-.79-.073-1.592-.163-2.38-.267a1.362 1.362 0 1 0-.356 2.7c.823.11 1.66.2 2.487.28.044 0 .086.005.127.005a1.36 1.36 0 0 0 .123-2.715z"/></g>
    </symbol>
    <symbol id="icon_fb" viewBox="4489 1633.673 35.787 35.787">
      <defs><style>.cls-1 { fill: #fff; }</style></defs><path id="Path_489" data-name="Path 489" class="cls-1" d="M4506.894 1633.673a17.894 17.894 0 1 0 17.893 17.894 17.914 17.914 0 0 0-17.893-17.894zm4.45 18.523h-2.912v10.377h-4.313v-10.377h-2.052v-3.667h2.05v-2.373a4.046 4.046 0 0 1 4.354-4.353l3.2.012v3.557h-2.32a.878.878 0 0 0-.915 1v2.155h3.283z"/>
    </symbol></svg>