<?xml version="1.0" standalone="no"?>
<!DOCTYPE svg PUBLIC "-//W3C//DTD SVG 20010904//EN"
 "http://www.w3.org/TR/2001/REC-SVG-20010904/DTD/svg10.dtd">
<svg version="1.0" xmlns="http://www.w3.org/2000/svg"
 width="700.000000pt" height="700.000000pt" viewBox="0 0 700.000000 700.000000"
 preserveAspectRatio="xMidYMid meet">
<metadata>
Created by potrace 1.11, written by Peter Selinger 2001-2013
</metadata>
<g transform="translate(0.000000,700.000000) scale(0.100000,-0.100000)"
fill="#000000" stroke="none">
<path d="M3139 5916 c-2 -2 -67 -6 -144 -10 -77 -4 -156 -8 -175 -10 -19 -2
-71 -7 -115 -10 -44 -4 -90 -8 -101 -10 -11 -2 -45 -7 -75 -10 -90 -10 -146
-18 -249 -36 -30 -5 -73 -12 -95 -15 -128 -18 -430 -91 -607 -146 l-108 -33 0
-138 0 -137 88 -26 c48 -15 92 -28 97 -29 14 -5 87 -214 129 -371 54 -198 101
-452 121 -655 31 -308 26 -788 -10 -1050 -3 -19 -7 -58 -10 -86 -3 -28 -8 -61
-10 -75 -3 -13 -8 -44 -11 -69 -41 -312 -202 -879 -328 -1153 -14 -32 -26 -60
-26 -63 0 -2 -31 -66 -68 -142 l-68 -137 0 -84 1 -84 70 -23 c126 -41 468
-120 605 -140 19 -3 42 -7 50 -9 8 -2 38 -7 65 -10 28 -4 57 -8 65 -10 17 -5
208 -29 393 -50 23 -2 78 -7 122 -11 44 -3 103 -7 130 -9 319 -25 1000 -24
1255 0 19 2 73 6 120 10 47 3 103 8 125 10 22 3 60 7 85 10 42 4 198 24 247
30 12 2 34 6 50 9 15 3 48 8 73 11 153 21 599 122 735 167 l39 13 0 85 c0 85
0 85 -73 233 -40 81 -74 153 -75 160 -2 6 -13 35 -25 62 -30 66 -103 262 -131
350 -43 137 -62 200 -70 235 -4 19 -15 61 -24 92 -28 102 -92 415 -101 493 -2
23 -17 132 -21 154 -2 14 -6 54 -10 90 -3 36 -8 80 -10 96 -6 49 -17 332 -17
445 -1 111 10 368 17 410 2 14 7 54 10 90 3 36 8 74 10 85 2 11 7 45 11 75 22
177 106 514 179 720 l33 95 89 29 c49 16 90 29 91 30 2 1 -4 34 -12 73 -8 38
-17 87 -20 109 -4 21 -8 46 -11 55 -7 25 -87 52 -374 127 -77 21 -240 57 -340
75 -37 7 -53 10 -160 28 -67 11 -76 12 -169 24 -30 4 -62 8 -71 10 -9 2 -53 6
-96 10 -43 4 -86 9 -95 10 -8 2 -60 6 -115 10 -54 4 -115 9 -134 11 -42 5
-746 14 -751 10z m641 -230 c41 -3 109 -12 150 -20 41 -8 89 -17 105 -20 17
-2 62 -9 100 -16 39 -6 120 -13 182 -15 124 -4 162 -14 333 -88 142 -61 156
-65 250 -81 l75 -12 -105 -28 c-58 -16 -109 -29 -115 -30 -5 -1 -23 -5 -40 -9
-16 -4 -41 -9 -55 -11 -14 -2 -45 -9 -70 -14 -47 -11 -101 -20 -160 -28 -19
-2 -46 -6 -60 -9 -14 -3 -45 -7 -69 -10 -24 -2 -60 -7 -80 -9 -85 -12 -172
-19 -356 -31 -243 -17 -671 -7 -945 21 -84 8 -267 31 -315 39 -209 36 -366 71
-505 113 -82 24 -95 31 -92 47 6 30 25 39 257 116 228 76 319 94 485 94 78 -1
127 -7 190 -24 230 -62 304 -65 482 -19 113 30 254 57 273 52 6 -1 44 -5 85
-8z"/>
</g>
</svg>
