<svg xmlns="http://www.w3.org/2000/svg" viewBox="5760 5216 49.152 49.152">
  <defs>
    <style>
      .cls-1 {
        fill: #cba67a;
      }
    </style>
  </defs>
  <g id="clock" transform="translate(5760 5216)">
    <g id="Group_192" data-name="Group 192">
      <path id="Path_551" data-name="Path 551" class="cls-1" d="M24.576,0A24.576,24.576,0,1,0,49.152,24.576,24.555,24.555,0,0,0,24.576,0Zm1.446,46.186V41.924a1.446,1.446,0,1,0-2.891,0v4.262A21.843,21.843,0,0,1,2.967,26.022H7.228a1.446,1.446,0,0,0,0-2.891H2.967A21.843,21.843,0,0,1,23.13,2.967V7.228a1.446,1.446,0,0,0,2.891,0V2.967A21.843,21.843,0,0,1,46.186,23.13H41.924a1.446,1.446,0,1,0,0,2.891h4.262A21.84,21.84,0,0,1,26.022,46.186Z"/>
      <path id="Path_552" data-name="Path 552" class="cls-1" d="M146.437,81.169H142.39a.283.283,0,0,1-.289-.289V71.05a1.446,1.446,0,0,0-2.891,0v9.83a3.209,3.209,0,0,0,3.18,3.18h4.048a1.446,1.446,0,1,0,0-2.891Z" transform="translate(-116.079 -58.039)"/>
    </g>
  </g>
</svg>
